<?xml version="1.0" encoding="UTF-8"?>
<svg version="1.1" xmlns="http://www.w3.org/2000/svg" width="128" height="128">
<path d="M0 0 C8.02932291 7.43736904 13.59662658 15.50540613 14.3046875 26.671875 C14.62289419 39.18370469 12.6895682 48.37109661 4.06640625 57.9140625 C-5.2941486 67.55720014 -15.06711647 71.48698968 -28.453125 72.06640625 C-37.45035051 72.15568412 -37.45035051 72.15568412 -39.93359375 70.9140625 C-39.93359375 63.6540625 -39.93359375 56.3940625 -39.93359375 48.9140625 C-41.91359375 48.5840625 -43.89359375 48.2540625 -45.93359375 47.9140625 C-53.68085554 44.90554251 -58.34268361 39.9979446 -62.0703125 32.68359375 C-63.22120714 28.9913571 -63.31697174 25.43365426 -63.30859375 21.6015625 C-63.30698242 20.84262695 -63.30537109 20.08369141 -63.30371094 19.30175781 C-63.17612424 13.49531217 -62.29485455 9.76921699 -58.93359375 4.9140625 C-58.37671875 4.0478125 -57.81984375 3.1815625 -57.24609375 2.2890625 C-41.8798209 -13.49251502 -16.70995003 -14.04951076 0 0 Z M-49.93359375 6.9140625 C-54.05128794 12.87425036 -55.41402078 17.70765703 -54.93359375 24.9140625 C-53.59151775 30.47258199 -51.48458527 34.29395561 -46.93359375 37.9140625 C-44.62359375 38.9040625 -42.31359375 39.8940625 -39.93359375 40.9140625 C-39.93359375 30.6840625 -39.93359375 20.4540625 -39.93359375 9.9140625 C-19.41003354 10.55542376 -19.41003354 10.55542376 -12.55859375 17.2265625 C-9.26614536 22.67176561 -8.48727586 27.57034253 -9.39453125 33.7734375 C-10.76083572 39.19905237 -14.30128604 43.01887018 -18.93359375 45.9140625 C-22.89728275 47.41663742 -26.87730251 48.66597289 -30.93359375 49.9140625 C-30.93359375 54.5340625 -30.93359375 59.1540625 -30.93359375 63.9140625 C-20.89418398 63.9140625 -12.33620758 61.67070513 -4.32421875 55.4765625 C-2.70764917 53.66019219 -2.32256248 52.28881893 -1.93359375 49.9140625 C-1.27359375 49.9140625 -0.61359375 49.9140625 0.06640625 49.9140625 C0.71475279 48.6445095 1.3599844 47.37336544 2.00390625 46.1015625 C2.36355469 45.39386719 2.72320312 44.68617187 3.09375 43.95703125 C6.37875337 37.05720489 6.14940551 27.54616778 4.41796875 20.140625 C0.92514241 11.63245828 -5.68786202 4.89050883 -13.93359375 0.9140625 C-18.55199057 -0.94376285 -22.80864505 -1.47268634 -27.74609375 -1.4609375 C-28.45096924 -1.45932617 -29.15584473 -1.45771484 -29.88208008 -1.45605469 C-37.83150822 -1.26946128 -44.27495626 1.25542501 -49.93359375 6.9140625 Z M-30.93359375 17.9140625 C-30.93359375 25.5040625 -30.93359375 33.0940625 -30.93359375 40.9140625 C-23.18693706 39.89608631 -23.18693706 39.89608631 -17.93359375 34.9140625 C-16.55483168 30.66223756 -16.42767076 27.20697681 -18.05859375 23.0390625 C-20.2250554 20.58373929 -21.93188858 19.24039734 -24.93359375 17.9140625 C-26.91359375 17.9140625 -28.89359375 17.9140625 -30.93359375 17.9140625 Z " fill="#A69885" transform="translate(88.93359375,33.0859375)"/>
</svg>
